<svg width="130" height="133" viewBox="0 0 130 133" fill="none" xmlns="http://www.w3.org/2000/svg">
<g clip-path="url(#clip0_20_5)">
<path d="M32.5 49.875C36.8098 49.875 40.943 51.6266 43.9905 54.7443C47.038 57.8621 48.75 62.0908 48.75 66.5C48.75 70.9092 47.038 75.1379 43.9905 78.2556C40.943 81.3734 36.8098 83.125 32.5 83.125C28.1902 83.125 24.057 81.3734 21.0095 78.2556C17.962 75.1379 16.25 70.9092 16.25 66.5C16.25 62.0908 17.962 57.8621 21.0095 54.7443C24.057 51.6266 28.1902 49.875 32.5 49.875ZM53.8281 54.4219C51.3819 49.8937 47.6195 46.256 43.0624 44.013C38.5053 41.7699 33.379 41.0324 28.394 41.9028C23.409 42.7733 18.812 45.2084 15.24 48.8709C11.668 52.5333 9.29792 57.2418 8.45813 62.3437H4.0625C2.98506 62.3437 1.95175 62.7816 1.18988 63.5611C0.428012 64.3405 0 65.3977 0 66.5C0 67.6023 0.428012 68.6595 1.18988 69.4389C1.95175 70.2184 2.98506 70.6562 4.0625 70.6562H8.45813C9.46639 76.8318 12.7084 82.3934 17.5401 86.2361C22.3718 90.0788 28.4396 91.9214 34.5381 91.3979C40.6366 90.8744 46.3194 88.0231 50.4577 83.4104C54.5959 78.7976 56.8867 72.7611 56.875 66.5C56.875 64.2954 57.731 62.1811 59.2548 60.6222C60.7785 59.0633 62.8451 58.1875 65 58.1875C67.1549 58.1875 69.2215 59.0633 70.7452 60.6222C72.269 62.1811 73.125 64.2954 73.125 66.5C73.1133 72.7611 75.4041 78.7976 79.5423 83.4104C83.6806 88.0231 89.3634 90.8744 95.4619 91.3979C101.56 91.9214 107.628 90.0788 112.46 86.2361C117.292 82.3934 120.534 76.8318 121.542 70.6562H125.938C127.015 70.6562 128.048 70.2184 128.81 69.4389C129.572 68.6595 130 67.6023 130 66.5C130 65.3977 129.572 64.3405 128.81 63.5611C128.048 62.7816 127.015 62.3437 125.938 62.3437H121.542C120.702 57.2418 118.332 52.5333 114.76 48.8709C111.188 45.2084 106.591 42.7733 101.606 41.9028C96.621 41.0324 91.4947 41.7699 86.9376 44.013C82.3805 46.256 78.6181 49.8937 76.1719 54.4219C73.1531 51.5007 69.1552 49.8736 65 49.875C60.6775 49.875 56.745 51.604 53.8281 54.4219ZM113.75 66.5C113.75 70.9092 112.038 75.1379 108.99 78.2556C105.943 81.3734 101.81 83.125 97.5 83.125C93.1902 83.125 89.057 81.3734 86.0095 78.2556C82.9621 75.1379 81.25 70.9092 81.25 66.5C81.25 62.0908 82.9621 57.8621 86.0095 54.7443C89.057 51.6266 93.1902 49.875 97.5 49.875C101.81 49.875 105.943 51.6266 108.99 54.7443C112.038 57.8621 113.75 62.0908 113.75 66.5Z" fill="black"/>
<path d="M53.8027 94.793L52.5371 118.629L43.3262 119.473L38.4043 106.711L37.6309 119.719H29.7207L30.3535 94.793L39.1426 94.3711L45.2246 107.027L45.5059 95.0742L53.8027 94.793ZM65.7441 112.109C65.7441 112.676 65.7051 113.242 65.627 113.809C64.5137 113.88 63.4069 113.997 62.3066 114.16C61.2064 114.316 60.1061 114.473 59.0059 114.629C59.1751 115.098 59.4388 115.472 59.7969 115.752C60.1615 116.032 60.5944 116.172 61.0957 116.172C61.3561 116.172 61.6393 116.123 61.9453 116.025C62.2578 115.928 62.5671 115.807 62.873 115.664C63.179 115.514 63.472 115.355 63.752 115.186C64.0319 115.016 64.2728 114.863 64.4746 114.727L64.0059 119.16C63.752 119.355 63.4753 119.521 63.1758 119.658C62.8828 119.795 62.5768 119.906 62.2578 119.99C61.9388 120.075 61.6165 120.137 61.291 120.176C60.9655 120.215 60.6465 120.234 60.334 120.234C59.6895 120.234 59.1003 120.146 58.5664 119.971C58.0326 119.795 57.5475 119.551 57.1113 119.238C56.6816 118.919 56.304 118.545 55.9785 118.115C55.653 117.686 55.3828 117.217 55.168 116.709C54.9531 116.201 54.7904 115.664 54.6797 115.098C54.569 114.531 54.5137 113.958 54.5137 113.379C54.5137 112.773 54.569 112.168 54.6797 111.562C54.7904 110.957 54.9564 110.374 55.1777 109.814C55.4056 109.255 55.6888 108.737 56.0273 108.262C56.3724 107.78 56.7728 107.36 57.2285 107.002C57.6842 106.644 58.1986 106.364 58.7715 106.162C59.3509 105.96 59.9889 105.859 60.6855 105.859C61.265 105.859 61.7923 105.941 62.2676 106.104C62.7493 106.26 63.1758 106.481 63.5469 106.768C63.9245 107.048 64.25 107.383 64.5234 107.773C64.8034 108.164 65.0312 108.594 65.207 109.062C65.3893 109.525 65.5228 110.016 65.6074 110.537C65.6986 111.051 65.7441 111.576 65.7441 112.109ZM61.8379 111.602C61.8379 111.419 61.8184 111.234 61.7793 111.045C61.7402 110.85 61.6751 110.674 61.584 110.518C61.4993 110.361 61.3854 110.234 61.2422 110.137C61.099 110.033 60.9199 109.98 60.7051 109.98C60.4447 109.98 60.2135 110.052 60.0117 110.195C59.8164 110.332 59.6471 110.508 59.5039 110.723C59.3607 110.931 59.2435 111.159 59.1523 111.406C59.0612 111.654 58.9928 111.882 58.9473 112.09L61.8379 111.816V111.602ZM77.834 110.586C77.834 111.094 77.7884 111.556 77.6973 111.973C77.6126 112.383 77.4759 112.76 77.2871 113.105C77.0983 113.451 76.8542 113.77 76.5547 114.062C76.2552 114.355 75.8939 114.635 75.4707 114.902L77.7949 119.043L73.4004 119.902L71.8965 115.742L70.6855 115.781L70.5098 119.844H66.3105C66.3431 118.359 66.3724 116.882 66.3984 115.41C66.431 113.939 66.4668 112.461 66.5059 110.977C66.5189 110.228 66.5319 109.486 66.5449 108.75C66.5579 108.014 66.584 107.272 66.623 106.523C67.0788 106.354 67.528 106.214 67.9707 106.104C68.4134 105.993 68.8561 105.908 69.2988 105.85C69.748 105.785 70.2005 105.742 70.6562 105.723C71.1185 105.697 71.5905 105.684 72.0723 105.684C72.8145 105.684 73.5306 105.788 74.2207 105.996C74.9173 106.198 75.5326 106.504 76.0664 106.914C76.6003 107.324 77.0267 107.835 77.3457 108.447C77.6712 109.059 77.834 109.772 77.834 110.586ZM73.459 110.898C73.459 110.625 73.4199 110.374 73.3418 110.146C73.2702 109.919 73.1595 109.723 73.0098 109.561C72.8665 109.391 72.6842 109.261 72.4629 109.17C72.248 109.072 71.9941 109.023 71.7012 109.023C71.571 109.023 71.444 109.033 71.3203 109.053C71.1966 109.066 71.0762 109.089 70.959 109.121L70.8027 112.754H71.0371C71.3171 112.754 71.6003 112.718 71.8867 112.646C72.1797 112.575 72.4401 112.464 72.668 112.314C72.9023 112.165 73.0911 111.973 73.2344 111.738C73.3841 111.504 73.459 111.224 73.459 110.898ZM89.582 112.246C89.582 113.158 89.4648 113.975 89.2305 114.697C88.9961 115.42 88.6673 116.061 88.2441 116.621C87.8275 117.174 87.3294 117.646 86.75 118.037C86.1706 118.428 85.5358 118.75 84.8457 119.004C84.1556 119.251 83.4199 119.434 82.6387 119.551C81.8639 119.668 81.0664 119.727 80.2461 119.727C79.9401 119.727 79.6406 119.72 79.3477 119.707C79.0547 119.688 78.7552 119.661 78.4492 119.629L78.7227 106.914C79.4388 106.686 80.1745 106.527 80.9297 106.436C81.6914 106.338 82.4466 106.289 83.1953 106.289C84.1263 106.289 84.9824 106.419 85.7637 106.68C86.5449 106.94 87.2188 107.324 87.7852 107.832C88.3516 108.333 88.791 108.955 89.1035 109.697C89.4225 110.433 89.582 111.283 89.582 112.246ZM82.9414 115.996C83.332 115.938 83.6868 115.82 84.0059 115.645C84.3314 115.462 84.6113 115.241 84.8457 114.98C85.0801 114.714 85.2591 114.414 85.3828 114.082C85.513 113.743 85.5781 113.385 85.5781 113.008C85.5781 112.637 85.5391 112.292 85.4609 111.973C85.3828 111.647 85.2559 111.367 85.0801 111.133C84.9043 110.892 84.6732 110.703 84.3867 110.566C84.1003 110.423 83.7487 110.345 83.332 110.332L82.9414 115.996Z" fill="black"/>
</g>
<defs>
<clipPath id="clip0_20_5">
<rect width="130" height="133" fill="white"/>
</clipPath>
</defs>
</svg>
